<?xml version="1.0" standalone="no"?>
<svg xmlns:xlink="http://www.w3.org/1999/xlink" id="wave" style="transform:rotate(180deg); transition: 0.3s" viewBox="0 0 1440 490" version="1.1" xmlns="http://www.w3.org/2000/svg"><defs><linearGradient id="sw-gradient-0" x1="0" x2="0" y1="1" y2="0"><stop stop-color="rgba(15, 20, 28, 1)" offset="0%"/><stop stop-color="rgba(66, 86, 124, 1)" offset="100%"/></linearGradient></defs><path style="transform:translate(0, 0px); opacity:1" fill="url(#sw-gradient-0)" d="M0,98L120,138.8C240,180,480,261,720,253.2C960,245,1200,147,1440,89.8C1680,33,1920,16,2160,24.5C2400,33,2640,65,2880,122.5C3120,180,3360,261,3600,269.5C3840,278,4080,212,4320,187.8C4560,163,4800,180,5040,196C5280,212,5520,229,5760,228.7C6000,229,6240,212,6480,204.2C6720,196,6960,196,7200,236.8C7440,278,7680,359,7920,400.2C8160,441,8400,441,8640,392C8880,343,9120,245,9360,212.3C9600,180,9840,212,10080,253.2C10320,294,10560,343,10800,326.7C11040,310,11280,229,11520,187.8C11760,147,12000,147,12240,171.5C12480,196,12720,245,12960,228.7C13200,212,13440,131,13680,138.8C13920,147,14160,245,14400,269.5C14640,294,14880,245,15120,212.3C15360,180,15600,163,15840,171.5C16080,180,16320,212,16560,212.3C16800,212,17040,180,17160,163.3L17280,147L17280,490L17160,490C17040,490,16800,490,16560,490C16320,490,16080,490,15840,490C15600,490,15360,490,15120,490C14880,490,14640,490,14400,490C14160,490,13920,490,13680,490C13440,490,13200,490,12960,490C12720,490,12480,490,12240,490C12000,490,11760,490,11520,490C11280,490,11040,490,10800,490C10560,490,10320,490,10080,490C9840,490,9600,490,9360,490C9120,490,8880,490,8640,490C8400,490,8160,490,7920,490C7680,490,7440,490,7200,490C6960,490,6720,490,6480,490C6240,490,6000,490,5760,490C5520,490,5280,490,5040,490C4800,490,4560,490,4320,490C4080,490,3840,490,3600,490C3360,490,3120,490,2880,490C2640,490,2400,490,2160,490C1920,490,1680,490,1440,490C1200,490,960,490,720,490C480,490,240,490,120,490L0,490Z"/><defs><linearGradient id="sw-gradient-1" x1="0" x2="0" y1="1" y2="0"><stop stop-color="rgba(66, 86, 124, 1)" offset="0%"/><stop stop-color="rgba(15, 20, 28, 0.71)" offset="100%"/></linearGradient></defs><path style="transform:translate(0, 50px); opacity:0.9" fill="url(#sw-gradient-1)" d="M0,245L120,261.3C240,278,480,310,720,277.7C960,245,1200,147,1440,138.8C1680,131,1920,212,2160,277.7C2400,343,2640,392,2880,408.3C3120,425,3360,408,3600,383.8C3840,359,4080,327,4320,318.5C4560,310,4800,327,5040,334.8C5280,343,5520,343,5760,318.5C6000,294,6240,245,6480,261.3C6720,278,6960,359,7200,383.8C7440,408,7680,376,7920,310.3C8160,245,8400,147,8640,130.7C8880,114,9120,180,9360,179.7C9600,180,9840,114,10080,81.7C10320,49,10560,49,10800,81.7C11040,114,11280,180,11520,196C11760,212,12000,180,12240,179.7C12480,180,12720,212,12960,245C13200,278,13440,310,13680,318.5C13920,327,14160,310,14400,277.7C14640,245,14880,196,15120,187.8C15360,180,15600,212,15840,196C16080,180,16320,114,16560,81.7C16800,49,17040,49,17160,49L17280,49L17280,490L17160,490C17040,490,16800,490,16560,490C16320,490,16080,490,15840,490C15600,490,15360,490,15120,490C14880,490,14640,490,14400,490C14160,490,13920,490,13680,490C13440,490,13200,490,12960,490C12720,490,12480,490,12240,490C12000,490,11760,490,11520,490C11280,490,11040,490,10800,490C10560,490,10320,490,10080,490C9840,490,9600,490,9360,490C9120,490,8880,490,8640,490C8400,490,8160,490,7920,490C7680,490,7440,490,7200,490C6960,490,6720,490,6480,490C6240,490,6000,490,5760,490C5520,490,5280,490,5040,490C4800,490,4560,490,4320,490C4080,490,3840,490,3600,490C3360,490,3120,490,2880,490C2640,490,2400,490,2160,490C1920,490,1680,490,1440,490C1200,490,960,490,720,490C480,490,240,490,120,490L0,490Z"/></svg>